<svg xmlns="http://www.w3.org/2000/svg" xmlns:xlink="http://www.w3.org/1999/xlink" class="" app-context="doc-2d" x="0px" y="0px" width="980" height="600" jvs-fullPath="gdrive/CoderAcademy/Project - 2 day hackathon/mad-hattr.svg"><title/><desc/><defs/><g id="jvs-guides" transform="matrix(1 0 0 1 0 0)"/><g id="jvs-content" enable-background="new"><g transform="matrix(1,0,0,1,0,0)" name="Layer" jvs-layer-color="#fb0094" class="jvs-layer selected"><rect transform="matrix(-0.847998 0.529999 -0.847998 -0.529999 890 302.371)" width="467.225" height="476.174" fill="none" stroke="#000000" stroke-width="15" stroke-linecap="butt" stroke-linejoin="miter" opacity="1" y="0" x="0" rx="0" class=""/><g transform="matrix(1 0 0 1 396.099 435.512)"><path d="M65.108 20.195Q62.735 20.195 61.362 18.750Q59.990 17.305 59.990 14.736Q59.990 12.148 61.265 10.625Q62.539 9.102 64.688 9.102Q66.699 9.102 67.871 10.425Q69.043 11.748 69.043 13.916L69.043 14.941L61.670 14.941Q61.719 16.826 62.622 17.803Q63.526 18.779 65.166 18.779Q66.895 18.779 68.584 18.057L68.584 19.502Q67.725 19.873 66.958 20.034Q66.192 20.195 65.108 20.195M64.668 10.459Q63.379 10.459 62.612 11.299Q61.846 12.139 61.709 13.623L67.305 13.623Q67.305 12.090 66.621 11.274Q65.938 10.459 64.668 10.459ZM78.711 17.080Q78.711 18.574 77.598 19.385Q76.485 20.195 74.473 20.195Q72.344 20.195 71.153 19.521L71.153 18.018Q71.924 18.408 72.808 18.633Q73.692 18.857 74.512 18.857Q75.781 18.857 76.465 18.452Q77.149 18.047 77.149 17.217Q77.149 16.592 76.607 16.147Q76.065 15.703 74.492 15.098Q72.998 14.541 72.368 14.126Q71.738 13.711 71.431 13.184Q71.123 12.656 71.123 11.924Q71.123 10.615 72.188 9.858Q73.252 9.102 75.108 9.102Q76.836 9.102 78.487 9.805L77.910 11.123Q76.299 10.459 74.990 10.459Q73.838 10.459 73.252 10.820Q72.666 11.182 72.666 11.816Q72.666 12.246 72.886 12.549Q73.106 12.852 73.594 13.125Q74.082 13.398 75.469 13.916Q77.373 14.609 78.042 15.313Q78.711 16.016 78.711 17.080ZM84.805 18.857Q85.235 18.857 85.635 18.794Q86.035 18.730 86.270 18.662L86.270 19.902Q86.006 20.029 85.493 20.112Q84.981 20.195 84.570 20.195Q81.465 20.195 81.465 16.924L81.465 10.557L79.932 10.557L79.932 9.775L81.465 9.102L82.149 6.816L83.086 6.816L83.086 9.297L86.192 9.297L86.192 10.557L83.086 10.557L83.086 16.855Q83.086 17.822 83.545 18.340Q84.004 18.857 84.805 18.857ZM88.174 18.965Q88.174 18.311 88.472 17.974Q88.770 17.637 89.326 17.637Q89.893 17.637 90.210 17.974Q90.528 18.311 90.528 18.965Q90.528 19.600 90.205 19.941Q89.883 20.283 89.326 20.283Q88.828 20.283 88.501 19.976Q88.174 19.668 88.174 18.965ZM107.569 20L98.184 20L98.184 18.604L101.944 14.824Q103.662 13.086 104.209 12.344Q104.756 11.602 105.029 10.898Q105.303 10.195 105.303 9.385Q105.303 8.242 104.610 7.573Q103.916 6.904 102.686 6.904Q101.797 6.904 101.001 7.197Q100.205 7.490 99.229 8.262L98.369 7.158Q100.342 5.518 102.666 5.518Q104.678 5.518 105.820 6.548Q106.963 7.578 106.963 9.316Q106.963 10.674 106.201 12.002Q105.440 13.330 103.350 15.361L100.225 18.418L100.225 18.496L107.569 18.496L107.569 20ZM119.082 12.842Q119.082 16.543 117.915 18.369Q116.748 20.195 114.346 20.195Q112.041 20.195 110.840 18.325Q109.639 16.455 109.639 12.842Q109.639 9.111 110.801 7.305Q111.963 5.498 114.346 5.498Q116.670 5.498 117.876 7.383Q119.082 9.268 119.082 12.842M111.279 12.842Q111.279 15.957 112.012 17.378Q112.744 18.799 114.346 18.799Q115.967 18.799 116.695 17.358Q117.422 15.918 117.422 12.842Q117.422 9.766 116.695 8.335Q115.967 6.904 114.346 6.904Q112.744 6.904 112.012 8.315Q111.279 9.727 111.279 12.842ZM127.061 20L125.479 20L125.479 9.824Q125.479 8.555 125.557 7.422Q125.352 7.627 125.098 7.852Q124.844 8.076 122.774 9.756L121.914 8.643L125.694 5.723L127.061 5.723L127.061 20ZM134.297 20L140.215 7.217L132.432 7.217L132.432 5.723L141.934 5.723L141.934 7.021L136.094 20L134.297 20Z" stroke-width="1.20" stroke="#000000" fill="none"/></g></g><g transform="matrix(1,0,0,1,0,0)" name="Layer 1" jvs-layer-color="#ff7f00" class="jvs-layer"><path fill="rgb(0,0,0)" stroke="#000000" stroke-width="5" stroke-linecap="butt" stroke-linejoin="miter" opacity="1" d="M 302 284 L 659 284" transform="matrix(1 0 0 1 9.49997 0)" fill-opacity="1"/><g transform="matrix(1 0 0 1 284.187 168.044)"><path d="M142.338 98.700L142.338 35.100L116.838 70.600Q116.338 71.100 115.738 71.100L115.538 71.100Q114.738 71.100 114.438 70.600L88.838 35L88.838 98.700Q88.838 100 87.588 100Q86.338 100 86.338 98.700L86.338 31.400Q86.338 30.900 86.738 30.500Q87.138 30.100 87.538 30.100Q88.138 30.100 88.838 30.600L115.638 67.800L142.438 30.600Q142.938 30.100 143.538 30.100Q144.838 30.100 144.838 31.400L144.838 98.700Q144.838 100 143.538 100Q143.038 100 142.688 99.600Q142.338 99.200 142.338 98.700ZM238.438 99.700Q238.338 99.700 237.788 99.750Q237.238 99.800 236.738 98.900L230.038 81L195.038 81L188.338 98.900Q188.138 99.800 187.238 99.800Q186.838 99.700 186.738 99.700Q185.638 99.200 186.138 98L211.338 30.800Q211.638 29.800 212.538 29.900Q213.438 30 213.938 30.800L239.138 98Q239.638 99.100 238.438 99.700M212.538 34.600L196.038 78.400L229.038 78.400L212.538 34.600ZM275.338 98.700L275.338 31.300Q275.338 30 276.638 30L290.038 30Q304.538 30 314.788 40.250Q325.038 50.500 325.038 65Q325.038 79.500 314.788 89.750Q304.538 100 290.038 100L276.638 100Q275.338 100 275.338 98.700M277.838 97.500L290.038 97.500Q303.538 97.300 312.988 87.850Q322.438 78.400 322.538 64.900Q322.438 51.500 312.988 42Q303.538 32.500 290.038 32.500L277.838 32.500L277.838 97.500Z" stroke-width="1.20" stroke="#000000" fill="rgb(0,0,0)" fill-opacity="1"/><path d="M57.292 198.700L57.292 166.200L17.492 166.200L17.492 198.700Q17.492 199.200 17.142 199.600Q16.792 200 16.292 200Q14.992 200 14.992 198.700L14.992 131.300Q14.992 130 16.292 130Q16.792 130 17.142 130.400Q17.492 130.800 17.492 131.300L17.492 163.700L57.292 163.700L57.292 131.300Q57.292 130 58.542 130Q59.792 130 59.792 131.300L59.792 198.700Q59.792 200 58.542 200Q57.292 200 57.292 198.700ZM153.592 199.700Q153.492 199.700 152.942 199.750Q152.392 199.800 151.892 198.900L145.192 181L110.192 181L103.492 198.900Q103.292 199.800 102.392 199.800Q101.992 199.700 101.892 199.700Q100.792 199.200 101.292 198L126.492 130.800Q126.792 129.800 127.692 129.900Q128.592 130 129.092 130.800L154.292 198Q154.792 199.100 153.592 199.700M127.692 134.600L111.192 178.400L144.192 178.400L127.692 134.600ZM209.492 198.700L209.492 132.500L186.392 132.500Q185.092 132.500 185.092 131.250Q185.092 130 186.392 130L235.092 130Q236.392 130 236.392 131.250Q236.392 132.500 235.092 132.500L212.092 132.500L212.092 198.700Q212.092 199.200 211.692 199.600Q211.292 200 210.792 200Q209.492 200 209.492 198.700ZM294.292 198.700L294.292 132.500L271.192 132.500Q269.892 132.500 269.892 131.250Q269.892 130 271.192 130L319.892 130Q321.192 130 321.192 131.250Q321.192 132.500 319.892 132.500L296.892 132.500L296.892 198.700Q296.892 199.200 296.492 199.600Q296.092 200 295.592 200Q294.292 200 294.292 198.700ZM385.992 168.100Q398.692 173.400 398.692 184.900Q398.692 192.100 400.192 195.100Q400.792 196.300 401.992 196.200Q403.192 196.100 403.392 197.300Q403.492 198.200 402.992 198.550Q402.492 198.900 401.692 198.900Q399.492 198.900 398.092 196.200Q396.192 193 396.192 184.900Q396.192 178.600 390.792 173.750Q385.392 168.900 373.492 168.900L361.192 168.900L361.192 198.700Q361.192 200 359.942 200Q358.692 200 358.692 198.700L358.692 131.300Q358.692 130 359.992 130L380.492 130Q388.492 130 394.242 135.700Q399.992 141.400 399.992 148.750Q399.992 156.100 396.092 161.250Q392.192 166.400 385.992 168.100M361.192 166.300L380.692 166.300Q387.592 166.200 392.492 161.350Q397.392 156.500 397.392 149.500Q397.392 142.500 392.442 137.500Q387.492 132.500 380.492 132.500L361.192 132.500L361.192 166.300Z" stroke-width="1.20" stroke="#000000" fill="rgb(0,0,0)" fill-opacity="1"/></g></g></g></svg>